<?xml version="1.0" encoding="utf-8"?>
<!-- Generator: Adobe Illustrator 26.1.0, SVG Export Plug-In . SVG Version: 6.00 Build 0)  -->
<svg version="1.1" id="Layer_1" xmlns="http://www.w3.org/2000/svg" xmlns:xlink="http://www.w3.org/1999/xlink" x="0px" y="0px"
	 viewBox="0 0 30.23 27.15" style="enable-background:new 0 0 30.23 27.15;" xml:space="preserve">
<style type="text/css">
	.st0{fill:#FFFFFF;}
</style>
<path class="st0" d="M7.03,14.8c0,0.04-0.01,0.07-0.04,0.1c-0.03,0.03-0.06,0.04-0.1,0.04c-0.04,0-0.07-0.01-0.1-0.04
	c-0.03-0.03-0.04-0.06-0.04-0.1v-1.54H6.19c-0.04,0-0.07-0.01-0.1-0.04c-0.03-0.03-0.04-0.06-0.04-0.1c0-0.04,0.01-0.07,0.04-0.1
	c0.03-0.03,0.06-0.04,0.1-0.04h1.4c0.04,0,0.07,0.01,0.1,0.04c0.03,0.03,0.04,0.06,0.04,0.1c0,0.04-0.01,0.07-0.04,0.1
	c-0.03,0.03-0.06,0.04-0.1,0.04H7.03V14.8z M8.15,13.26c-0.04,0-0.07-0.01-0.1-0.04c-0.03-0.03-0.04-0.06-0.04-0.1
	c0-0.04,0.01-0.07,0.04-0.1c0.03-0.03,0.06-0.04,0.1-0.04h1.4c0.04,0,0.07,0.01,0.1,0.04c0.03,0.03,0.04,0.06,0.04,0.1
	c0,0.04-0.01,0.07-0.04,0.1c-0.03,0.03-0.06,0.04-0.1,0.04H8.15z M9.55,13.82c0.04,0,0.07,0.01,0.1,0.04
	c0.03,0.03,0.04,0.06,0.04,0.1c0,0.04-0.01,0.07-0.04,0.1c-0.03,0.03-0.06,0.04-0.1,0.04h-1.4c-0.04,0-0.07-0.01-0.1-0.04
	c-0.03-0.03-0.04-0.06-0.04-0.1c0-0.04,0.01-0.07,0.04-0.1c0.03-0.03,0.06-0.04,0.1-0.04H9.55z M8.15,14.94
	c-0.04,0-0.07-0.01-0.1-0.04c-0.03-0.03-0.04-0.06-0.04-0.1c0-0.04,0.01-0.07,0.04-0.1c0.03-0.03,0.06-0.04,0.1-0.04h1.4
	c0.04,0,0.07,0.01,0.1,0.04c0.03,0.03,0.04,0.06,0.04,0.1c0,0.04-0.01,0.07-0.04,0.1c-0.03,0.03-0.06,0.04-0.1,0.04H8.15z
	 M10.24,14.86c-0.01,0.01-0.02,0.03-0.03,0.04c-0.03,0.03-0.06,0.04-0.1,0.04c-0.04,0-0.07-0.01-0.1-0.04
	c-0.03-0.03-0.04-0.06-0.04-0.1c0-0.02,0-0.04,0.02-0.06l0.69-1.65h0c0.01-0.02,0.02-0.04,0.04-0.06c0.03-0.03,0.06-0.04,0.1-0.04
	c0.04,0,0.07,0.01,0.1,0.04c0.02,0.02,0.03,0.05,0.04,0.07l0.01,0l0.69,1.67h0c0,0.01,0.01,0.03,0.01,0.04
	c0,0.04-0.01,0.07-0.04,0.1c-0.03,0.03-0.06,0.04-0.1,0.04c-0.04,0-0.07-0.01-0.1-0.04c-0.02-0.02-0.03-0.04-0.04-0.06l-0.56-1.36
	L10.24,14.86L10.24,14.86z M12.2,14.86c-0.01,0.01-0.02,0.03-0.03,0.04c-0.03,0.03-0.06,0.04-0.1,0.04c-0.04,0-0.07-0.01-0.1-0.04
	c-0.03-0.03-0.04-0.06-0.04-0.1c0-0.02,0-0.04,0.02-0.06l0.69-1.65h0c0.01-0.02,0.02-0.04,0.04-0.06c0.03-0.03,0.06-0.04,0.1-0.04
	c0.04,0,0.07,0.01,0.1,0.04c0.02,0.02,0.03,0.05,0.04,0.07l0.01,0l0.56,1.35l0.56-1.35h0c0.01-0.02,0.02-0.04,0.04-0.06
	c0.03-0.03,0.06-0.04,0.1-0.04c0.04,0,0.07,0.01,0.1,0.04c0.02,0.02,0.03,0.05,0.04,0.07l0.01,0l0.69,1.67h0
	c0,0.01,0.01,0.03,0.01,0.04c0,0.04-0.01,0.07-0.04,0.1c-0.03,0.03-0.06,0.04-0.1,0.04c-0.04,0-0.07-0.01-0.1-0.04
	c-0.02-0.02-0.03-0.04-0.04-0.06l-0.56-1.36l-0.57,1.38h0c-0.01,0.01-0.02,0.03-0.03,0.04c-0.03,0.03-0.06,0.04-0.1,0.04
	c-0.04,0-0.07-0.01-0.1-0.04c-0.02-0.02-0.03-0.04-0.04-0.06l-0.56-1.36L12.2,14.86L12.2,14.86z M19.71,14.94
	c-0.04,0-0.07-0.01-0.1-0.04c-0.03-0.03-0.04-0.06-0.04-0.1c0-0.02,0-0.04,0.02-0.06l0.69-1.65h0c0.01-0.02,0.02-0.04,0.04-0.06
	c0.03-0.03,0.06-0.04,0.1-0.04c0.04,0,0.07,0.01,0.1,0.04c0.02,0.02,0.03,0.05,0.04,0.07l0.01,0l0.69,1.67h0
	c0,0.01,0.01,0.03,0.01,0.04c0,0.04-0.01,0.07-0.04,0.1c-0.03,0.03-0.06,0.04-0.1,0.04H19.71z M20.41,13.48l-0.49,1.18h0.98
	L20.41,13.48z M21.53,13.12c0-0.04,0.01-0.07,0.04-0.1c0.03-0.03,0.06-0.04,0.1-0.04c0.04,0,0.07,0.01,0.1,0.04
	c0.03,0.03,0.04,0.06,0.04,0.1v1.54h1.26c0.04,0,0.07,0.01,0.1,0.04c0.03,0.03,0.04,0.06,0.04,0.1c0,0.04-0.01,0.07-0.04,0.1
	c-0.03,0.03-0.06,0.04-0.1,0.04h-1.4c-0.04,0-0.07-0.01-0.1-0.04c-0.03-0.03-0.04-0.06-0.04-0.1V13.12z M23.63,13.26
	c-0.04,0-0.07-0.01-0.1-0.04c-0.03-0.03-0.04-0.06-0.04-0.1c0-0.04,0.01-0.07,0.04-0.1c0.03-0.03,0.06-0.04,0.1-0.04h0.98
	c0.15,0,0.29,0.05,0.4,0.16s0.16,0.24,0.16,0.4c0,0.16-0.05,0.29-0.16,0.4c-0.11,0.11-0.24,0.16-0.4,0.16h-0.84v0.7
	c0,0.04-0.01,0.07-0.04,0.1c-0.03,0.03-0.06,0.04-0.1,0.04c-0.04,0-0.07-0.01-0.1-0.04c-0.03-0.03-0.04-0.06-0.04-0.1v-0.84
	c0-0.04,0.01-0.07,0.04-0.1c0.03-0.03,0.06-0.04,0.1-0.04h0.98c0.08,0,0.14-0.03,0.2-0.08c0.05-0.05,0.08-0.12,0.08-0.2
	c0-0.08-0.03-0.14-0.08-0.2s-0.12-0.08-0.2-0.08H23.63z M25.46,13.12c0-0.04,0.01-0.07,0.04-0.1c0.03-0.03,0.06-0.04,0.1-0.04
	c0.04,0,0.07,0.01,0.1,0.04c0.03,0.03,0.04,0.06,0.04,0.1v1.68c0,0.04-0.01,0.07-0.04,0.1c-0.03,0.03-0.06,0.04-0.1,0.04
	c-0.04,0-0.07-0.01-0.1-0.04c-0.03-0.03-0.04-0.06-0.04-0.1V13.12z M26.86,13.12c0-0.04,0.01-0.07,0.04-0.1
	c0.03-0.03,0.06-0.04,0.1-0.04c0.04,0,0.07,0.01,0.1,0.04c0.03,0.03,0.04,0.06,0.04,0.1v1.68c0,0.04-0.01,0.07-0.04,0.1
	c-0.03,0.03-0.06,0.04-0.1,0.04c-0.04,0-0.07-0.01-0.1-0.04c-0.03-0.03-0.04-0.06-0.04-0.1v-0.7h-0.7c-0.04,0-0.07-0.01-0.1-0.04
	c-0.03-0.03-0.04-0.06-0.04-0.1c0-0.04,0.01-0.07,0.04-0.1c0.03-0.03,0.06-0.04,0.1-0.04h0.7V13.12z M27.68,14.86
	c-0.01,0.01-0.02,0.03-0.03,0.04c-0.03,0.03-0.06,0.04-0.1,0.04c-0.04,0-0.07-0.01-0.1-0.04c-0.03-0.03-0.04-0.06-0.04-0.1
	c0-0.02,0-0.04,0.02-0.06l0.69-1.65h0c0.01-0.02,0.02-0.04,0.04-0.06c0.03-0.03,0.06-0.04,0.1-0.04c0.04,0,0.07,0.01,0.1,0.04
	c0.02,0.02,0.03,0.05,0.04,0.07l0.01,0l0.69,1.67h0c0,0.01,0.01,0.03,0.01,0.04c0,0.04-0.01,0.07-0.04,0.1
	c-0.03,0.03-0.06,0.04-0.1,0.04c-0.04,0-0.07-0.01-0.1-0.04c-0.02-0.02-0.03-0.04-0.04-0.06l-0.56-1.36L27.68,14.86L27.68,14.86z
	 M22.44,3.65c0,0.29,0,0.56,0,0.83c0,0.04-0.02,0.09-0.04,0.12c-0.77,1.3-1.34,2.69-1.89,4.09c-0.64,1.62-1.25,3.26-1.87,4.89
	c-0.03,0.08-0.04,0.19-0.02,0.27c0.71,3.04,1.53,6.04,2.62,8.97c0.05,0.15,0.13,0.22,0.28,0.26c0.25,0.07,0.49,0.15,0.73,0.23
	c0.05,0.02,0.11,0.07,0.11,0.11c0.01,0.3,0.01,0.6,0.01,0.91c-0.08,0-0.15,0.01-0.21,0.01c-1.41,0-2.83,0-4.24,0
	c-0.15,0-0.23-0.04-0.27-0.2c-0.56-1.86-1.01-3.74-1.35-5.65c-0.01-0.06-0.06-0.12-0.09-0.18c-0.05,0.05-0.11,0.09-0.15,0.15
	c-0.65,1.09-1.25,2.21-1.95,3.26c-0.73,1.11-1.69,2-2.94,2.55c-0.65,0.29-1.34,0.43-2.05,0.49c-1.28,0.09-2.51-0.07-3.65-0.69
	c-1.19-0.65-2.01-1.65-2.61-2.84c-0.55-1.1-0.86-2.27-1.06-3.48c-0.24-1.47-0.28-2.95-0.22-4.43c0.09-2.08,0.46-4.09,1.42-5.96
	c1.1-2.13,2.77-3.55,5.14-4.06c1.67-0.36,3.33-0.33,4.95,0.27c1.31,0.49,2.23,1.42,2.94,2.59c0.53,0.88,0.91,1.83,1.23,2.8
	c0,0.01,0,0.01,0.01,0.02c0.04,0.06,0.08,0.11,0.11,0.17c0.04-0.06,0.09-0.11,0.11-0.17c0.14-0.5,0.28-1,0.42-1.49
	c0.34-1.23,0.68-2.45,1.02-3.68c0.04-0.13,0.09-0.17,0.23-0.17c1.04,0.01,2.08,0,3.12,0C22.31,3.65,22.36,3.65,22.44,3.65z
	 M5.54,14.32c0.01,1.55,0.09,3.07,0.46,4.56c0.24,0.97,0.59,1.88,1.22,2.67c0.48,0.59,1.07,1,1.85,1.06
	c1.08,0.09,2.01-0.26,2.82-0.98c0.84-0.76,1.45-1.68,1.96-2.67c0.78-1.52,1.31-3.14,1.89-4.74c0.02-0.05,0.02-0.11,0.01-0.17
	c-0.17-1.31-0.35-2.62-0.67-3.91c-0.28-1.16-0.64-2.3-1.27-3.32c-0.68-1.1-1.61-1.83-2.95-1.94C9.45,4.76,8.26,5.2,7.37,6.33
	C6.62,7.28,6.26,8.41,5.99,9.57C5.64,11.14,5.55,12.74,5.54,14.32z"/>
</svg>
