<?xml version="1.0" encoding="utf-8"?>
<!-- Generator: Adobe Illustrator 26.1.0, SVG Export Plug-In . SVG Version: 6.00 Build 0)  -->
<svg version="1.1" id="Layer_1" xmlns="http://www.w3.org/2000/svg" xmlns:xlink="http://www.w3.org/1999/xlink" x="0px" y="0px"
	 viewBox="0 0 107.68 26.76" style="enable-background:new 0 0 107.68 26.76;" xml:space="preserve">
<path d="M27.49,17.34c0,0.16-0.06,0.3-0.17,0.41s-0.25,0.17-0.41,0.17s-0.3-0.06-0.41-0.17s-0.17-0.25-0.17-0.41V10.9h-2.34
	c-0.16,0-0.3-0.06-0.41-0.17s-0.17-0.25-0.17-0.41s0.06-0.3,0.17-0.41s0.25-0.17,0.41-0.17h5.86c0.16,0,0.3,0.06,0.41,0.17
	s0.17,0.25,0.17,0.41s-0.06,0.3-0.17,0.41S30,10.9,29.84,10.9h-2.34V17.34z M32.18,10.9c-0.16,0-0.3-0.06-0.41-0.17
	s-0.17-0.25-0.17-0.41s0.06-0.3,0.17-0.41s0.25-0.17,0.41-0.17h5.86c0.16,0,0.3,0.06,0.41,0.17s0.17,0.25,0.17,0.41
	s-0.06,0.3-0.17,0.41s-0.25,0.17-0.41,0.17H32.18z M38.04,13.24c0.16,0,0.3,0.06,0.41,0.17s0.17,0.25,0.17,0.41s-0.06,0.3-0.17,0.41
	s-0.25,0.17-0.41,0.17h-5.86c-0.16,0-0.3-0.06-0.41-0.17s-0.17-0.25-0.17-0.41s0.06-0.3,0.17-0.41s0.25-0.17,0.41-0.17H38.04z
	 M32.18,17.93c-0.16,0-0.3-0.06-0.41-0.17s-0.17-0.25-0.17-0.41s0.06-0.3,0.17-0.41s0.25-0.17,0.41-0.17h5.86
	c0.16,0,0.3,0.06,0.41,0.17s0.17,0.25,0.17,0.41s-0.06,0.3-0.17,0.41s-0.25,0.17-0.41,0.17H32.18z M40.92,17.58
	c-0.03,0.06-0.07,0.12-0.12,0.17c-0.12,0.12-0.26,0.18-0.42,0.18s-0.3-0.06-0.41-0.17s-0.17-0.25-0.17-0.41
	c0-0.1,0.02-0.19,0.06-0.27l2.88-6.91h0.01c0.02-0.1,0.08-0.19,0.16-0.27c0.11-0.11,0.25-0.17,0.41-0.17s0.3,0.06,0.42,0.17
	c0.09,0.09,0.14,0.19,0.16,0.3l0.02-0.01l2.89,6.97H46.8c0.02,0.06,0.03,0.12,0.03,0.19c0,0.16-0.06,0.3-0.17,0.41
	s-0.25,0.17-0.41,0.17s-0.3-0.06-0.41-0.18c-0.08-0.07-0.13-0.16-0.15-0.25l-2.36-5.69L40.92,17.58L40.92,17.58z M49.12,17.58
	c-0.03,0.06-0.07,0.12-0.12,0.17c-0.12,0.12-0.26,0.18-0.42,0.18s-0.3-0.06-0.41-0.17S48,17.5,48,17.34c0-0.1,0.02-0.19,0.06-0.27
	l2.88-6.91h0.01c0.02-0.1,0.08-0.19,0.16-0.27c0.11-0.11,0.25-0.17,0.41-0.17s0.3,0.06,0.42,0.17c0.09,0.09,0.14,0.19,0.16,0.3
	l0.02-0.01l2.34,5.62l2.35-5.65h0.01c0.02-0.1,0.08-0.19,0.16-0.27c0.11-0.11,0.25-0.17,0.41-0.17s0.3,0.06,0.42,0.17
	c0.09,0.09,0.14,0.19,0.16,0.3l0.02-0.01l2.89,6.97h-0.01c0.02,0.06,0.03,0.12,0.03,0.19c0,0.16-0.06,0.3-0.17,0.41
	s-0.25,0.17-0.41,0.17s-0.3-0.06-0.41-0.18c-0.08-0.07-0.13-0.16-0.15-0.25l-2.36-5.69l-2.4,5.77h-0.01
	c-0.03,0.06-0.07,0.12-0.12,0.17c-0.12,0.12-0.26,0.18-0.42,0.18s-0.3-0.06-0.41-0.18c-0.08-0.07-0.13-0.16-0.15-0.25l-2.36-5.69
	L49.12,17.58L49.12,17.58z M65.65,17.93c-0.16,0-0.3-0.06-0.41-0.17s-0.17-0.25-0.17-0.41c0-0.1,0.02-0.19,0.06-0.27L68,10.17h0.01
	c0.02-0.1,0.08-0.19,0.16-0.27c0.11-0.11,0.25-0.17,0.41-0.17s0.3,0.06,0.42,0.17c0.09,0.09,0.14,0.19,0.16,0.3l0.02-0.01l2.89,6.97
	h-0.01c0.02,0.06,0.03,0.12,0.03,0.19c0,0.16-0.06,0.3-0.17,0.41s-0.25,0.17-0.41,0.17H65.65z M68.58,11.81l-2.05,4.95h4.1
	L68.58,11.81z M73.27,10.31c0-0.16,0.06-0.3,0.17-0.41s0.25-0.17,0.41-0.17s0.3,0.06,0.41,0.17s0.17,0.25,0.17,0.41v6.45h5.27
	c0.16,0,0.3,0.06,0.41,0.17s0.17,0.25,0.17,0.41s-0.06,0.3-0.17,0.41s-0.25,0.17-0.41,0.17h-5.86c-0.16,0-0.3-0.06-0.41-0.17
	s-0.17-0.25-0.17-0.41V10.31z M82.06,10.9c-0.16,0-0.3-0.06-0.41-0.17s-0.17-0.25-0.17-0.41s0.06-0.3,0.17-0.41s0.25-0.17,0.41-0.17
	h4.1c0.65,0,1.2,0.23,1.66,0.69s0.69,1.01,0.69,1.66s-0.23,1.2-0.69,1.66s-1.01,0.69-1.66,0.69h-3.52v2.93
	c0,0.16-0.06,0.3-0.17,0.41s-0.25,0.17-0.41,0.17s-0.3-0.06-0.41-0.17s-0.17-0.25-0.17-0.41v-3.52c0-0.16,0.06-0.3,0.17-0.41
	s0.25-0.17,0.41-0.17h4.1c0.32,0,0.6-0.11,0.83-0.34s0.34-0.5,0.34-0.83s-0.11-0.6-0.34-0.83s-0.5-0.34-0.83-0.34H82.06z
	 M89.67,10.31c0-0.16,0.06-0.3,0.17-0.41s0.25-0.17,0.41-0.17s0.3,0.06,0.41,0.17s0.17,0.25,0.17,0.41v7.03
	c0,0.16-0.06,0.3-0.17,0.41s-0.25,0.17-0.41,0.17s-0.3-0.06-0.41-0.17s-0.17-0.25-0.17-0.41V10.31z M95.53,10.31
	c0-0.16,0.06-0.3,0.17-0.41s0.25-0.17,0.41-0.17s0.3,0.06,0.41,0.17s0.17,0.25,0.17,0.41v7.03c0,0.16-0.06,0.3-0.17,0.41
	s-0.25,0.17-0.41,0.17s-0.3-0.06-0.41-0.17s-0.17-0.25-0.17-0.41v-2.93H92.6c-0.16,0-0.3-0.06-0.41-0.17s-0.17-0.25-0.17-0.41
	s0.06-0.3,0.17-0.41s0.25-0.17,0.41-0.17h2.93V10.31z M98.99,17.58c-0.03,0.06-0.07,0.12-0.12,0.17c-0.12,0.12-0.26,0.18-0.42,0.18
	s-0.3-0.06-0.41-0.17s-0.17-0.25-0.17-0.41c0-0.1,0.02-0.19,0.06-0.27l2.88-6.91h0.01c0.02-0.1,0.08-0.19,0.16-0.27
	c0.11-0.11,0.25-0.17,0.41-0.17s0.3,0.06,0.42,0.17c0.09,0.09,0.14,0.19,0.16,0.3l0.02-0.01l2.89,6.97h-0.01
	c0.02,0.06,0.03,0.12,0.03,0.19c0,0.16-0.06,0.3-0.17,0.41s-0.25,0.17-0.41,0.17s-0.3-0.06-0.41-0.18
	c-0.08-0.07-0.13-0.16-0.15-0.25l-2.36-5.69L98.99,17.58L98.99,17.58z M22.44,3.43c0,0.29,0,0.56,0,0.83c0,0.04-0.02,0.09-0.04,0.12
	c-0.77,1.3-1.34,2.69-1.89,4.09c-0.64,1.62-1.25,3.26-1.87,4.89c-0.03,0.08-0.04,0.19-0.02,0.27c0.71,3.04,1.53,6.04,2.62,8.97
	c0.05,0.15,0.13,0.22,0.28,0.26c0.25,0.07,0.49,0.15,0.73,0.23c0.05,0.02,0.11,0.07,0.11,0.11c0.01,0.3,0.01,0.6,0.01,0.91
	c-0.08,0-0.15,0.01-0.21,0.01c-1.41,0-2.83,0-4.24,0c-0.15,0-0.23-0.04-0.27-0.2c-0.56-1.86-1.01-3.74-1.35-5.65
	c-0.01-0.06-0.06-0.12-0.09-0.18c-0.05,0.05-0.11,0.09-0.15,0.15c-0.65,1.09-1.25,2.21-1.95,3.26c-0.73,1.11-1.69,2-2.94,2.55
	c-0.65,0.29-1.34,0.43-2.05,0.49c-1.28,0.09-2.51-0.07-3.65-0.69c-1.19-0.65-2.01-1.65-2.61-2.84c-0.55-1.1-0.86-2.27-1.06-3.48
	c-0.24-1.47-0.28-2.95-0.22-4.43c0.09-2.08,0.46-4.09,1.42-5.96c1.1-2.13,2.77-3.55,5.14-4.06c1.67-0.36,3.33-0.33,4.95,0.27
	c1.31,0.49,2.23,1.42,2.94,2.59c0.53,0.88,0.91,1.83,1.23,2.8c0,0.01,0,0.01,0.01,0.02c0.04,0.06,0.08,0.11,0.11,0.17
	c0.04-0.06,0.09-0.11,0.11-0.17c0.14-0.5,0.28-1,0.42-1.49c0.34-1.23,0.68-2.45,1.02-3.68c0.04-0.13,0.09-0.17,0.23-0.17
	c1.04,0.01,2.08,0,3.12,0C22.31,3.43,22.36,3.43,22.44,3.43z M5.54,14.1c0.01,1.55,0.09,3.07,0.46,4.56
	c0.24,0.97,0.59,1.88,1.22,2.67c0.48,0.59,1.07,1,1.85,1.06c1.08,0.09,2.01-0.26,2.82-0.98c0.84-0.76,1.45-1.68,1.96-2.67
	c0.78-1.52,1.31-3.14,1.89-4.74c0.02-0.05,0.02-0.11,0.01-0.17c-0.17-1.31-0.35-2.62-0.67-3.91c-0.28-1.16-0.64-2.3-1.27-3.32
	c-0.68-1.1-1.61-1.83-2.95-1.94C9.45,4.54,8.26,4.97,7.37,6.1C6.62,7.06,6.26,8.19,5.99,9.35C5.64,10.92,5.55,12.52,5.54,14.1z"/>
</svg>
