<?xml version="1.0" encoding="utf-8"?>
<!-- Generator: Adobe Illustrator 26.1.0, SVG Export Plug-In . SVG Version: 6.00 Build 0)  -->
<svg version="1.1" id="Layer_1" xmlns="http://www.w3.org/2000/svg" xmlns:xlink="http://www.w3.org/1999/xlink" x="0px" y="0px"
	 viewBox="0 0 107.68 26.76" style="enable-background:new 0 0 107.68 26.76;" xml:space="preserve">
<path d="M27.49,13.84c0,0.16-0.06,0.3-0.17,0.41s-0.25,0.17-0.41,0.17s-0.3-0.06-0.41-0.17s-0.17-0.25-0.17-0.41V7.4h-2.34
	c-0.16,0-0.3-0.06-0.41-0.17s-0.17-0.25-0.17-0.41s0.06-0.3,0.17-0.41s0.25-0.17,0.41-0.17h5.86c0.16,0,0.3,0.06,0.41,0.17
	s0.17,0.25,0.17,0.41s-0.06,0.3-0.17,0.41S30,7.4,29.84,7.4h-2.34V13.84z M32.18,7.4c-0.16,0-0.3-0.06-0.41-0.17
	s-0.17-0.25-0.17-0.41s0.06-0.3,0.17-0.41s0.25-0.17,0.41-0.17h5.86c0.16,0,0.3,0.06,0.41,0.17s0.17,0.25,0.17,0.41
	s-0.06,0.3-0.17,0.41S38.2,7.4,38.04,7.4H32.18z M38.04,9.74c0.16,0,0.3,0.06,0.41,0.17s0.17,0.25,0.17,0.41s-0.06,0.3-0.17,0.41
	s-0.25,0.17-0.41,0.17h-5.86c-0.16,0-0.3-0.06-0.41-0.17s-0.17-0.25-0.17-0.41s0.06-0.3,0.17-0.41s0.25-0.17,0.41-0.17H38.04z
	 M32.18,14.43c-0.16,0-0.3-0.06-0.41-0.17s-0.17-0.25-0.17-0.41s0.06-0.3,0.17-0.41s0.25-0.17,0.41-0.17h5.86
	c0.16,0,0.3,0.06,0.41,0.17s0.17,0.25,0.17,0.41s-0.06,0.3-0.17,0.41s-0.25,0.17-0.41,0.17H32.18z M40.92,14.08
	c-0.03,0.06-0.07,0.12-0.12,0.17c-0.12,0.12-0.26,0.18-0.42,0.18s-0.3-0.06-0.41-0.17S39.8,14,39.8,13.84c0-0.1,0.02-0.19,0.06-0.27
	l2.88-6.91h0.01c0.02-0.1,0.08-0.19,0.16-0.27c0.11-0.11,0.25-0.17,0.41-0.17s0.3,0.06,0.42,0.17c0.09,0.09,0.14,0.19,0.16,0.3
	l0.02-0.01l2.89,6.97H46.8c0.02,0.06,0.03,0.12,0.03,0.19c0,0.16-0.06,0.3-0.17,0.41s-0.25,0.17-0.41,0.17s-0.3-0.06-0.41-0.18
	c-0.08-0.07-0.13-0.16-0.15-0.25l-2.36-5.69L40.92,14.08L40.92,14.08z M49.12,14.08c-0.03,0.06-0.07,0.12-0.12,0.17
	c-0.12,0.12-0.26,0.18-0.42,0.18s-0.3-0.06-0.41-0.17S48,14,48,13.84c0-0.1,0.02-0.19,0.06-0.27l2.88-6.91h0.01
	c0.02-0.1,0.08-0.19,0.16-0.27c0.11-0.11,0.25-0.17,0.41-0.17s0.3,0.06,0.42,0.17c0.09,0.09,0.14,0.19,0.16,0.3l0.02-0.01l2.34,5.62
	l2.35-5.65h0.01c0.02-0.1,0.08-0.19,0.16-0.27c0.11-0.11,0.25-0.17,0.41-0.17s0.3,0.06,0.42,0.17c0.09,0.09,0.14,0.19,0.16,0.3
	l0.02-0.01l2.89,6.97h-0.01c0.02,0.06,0.03,0.12,0.03,0.19c0,0.16-0.06,0.3-0.17,0.41s-0.25,0.17-0.41,0.17s-0.3-0.06-0.41-0.18
	c-0.08-0.07-0.13-0.16-0.15-0.25l-2.36-5.69l-2.4,5.77h-0.01c-0.03,0.06-0.07,0.12-0.12,0.17c-0.12,0.12-0.26,0.18-0.42,0.18
	s-0.3-0.06-0.41-0.18c-0.08-0.07-0.13-0.16-0.15-0.25l-2.36-5.69L49.12,14.08L49.12,14.08z M65.65,14.43c-0.16,0-0.3-0.06-0.41-0.17
	s-0.17-0.25-0.17-0.41c0-0.1,0.02-0.19,0.06-0.27L68,6.67h0.01c0.02-0.1,0.08-0.19,0.16-0.27c0.11-0.11,0.25-0.17,0.41-0.17
	s0.3,0.06,0.42,0.17c0.09,0.09,0.14,0.19,0.16,0.3l0.02-0.01l2.89,6.97h-0.01c0.02,0.06,0.03,0.12,0.03,0.19
	c0,0.16-0.06,0.3-0.17,0.41s-0.25,0.17-0.41,0.17H65.65z M68.58,8.31l-2.05,4.95h4.1L68.58,8.31z M73.27,6.81
	c0-0.16,0.06-0.3,0.17-0.41s0.25-0.17,0.41-0.17s0.3,0.06,0.41,0.17s0.17,0.25,0.17,0.41v6.45h5.27c0.16,0,0.3,0.06,0.41,0.17
	s0.17,0.25,0.17,0.41s-0.06,0.3-0.17,0.41s-0.25,0.17-0.41,0.17h-5.86c-0.16,0-0.3-0.06-0.41-0.17s-0.17-0.25-0.17-0.41V6.81z
	 M82.05,7.4c-0.16,0-0.3-0.06-0.41-0.17s-0.17-0.25-0.17-0.41s0.06-0.3,0.17-0.41s0.25-0.17,0.41-0.17h4.1
	c0.65,0,1.2,0.23,1.66,0.69s0.69,1.01,0.69,1.66s-0.23,1.2-0.69,1.66s-1.01,0.69-1.66,0.69h-3.52v2.93c0,0.16-0.06,0.3-0.17,0.41
	s-0.25,0.17-0.41,0.17s-0.3-0.06-0.41-0.17s-0.17-0.25-0.17-0.41v-3.52c0-0.16,0.06-0.3,0.17-0.41s0.25-0.17,0.41-0.17h4.1
	c0.32,0,0.6-0.11,0.83-0.34s0.34-0.5,0.34-0.83s-0.11-0.6-0.34-0.83s-0.5-0.34-0.83-0.34H82.05z M89.67,6.81
	c0-0.16,0.06-0.3,0.17-0.41s0.25-0.17,0.41-0.17s0.3,0.06,0.41,0.17s0.17,0.25,0.17,0.41v7.03c0,0.16-0.06,0.3-0.17,0.41
	s-0.25,0.17-0.41,0.17s-0.3-0.06-0.41-0.17s-0.17-0.25-0.17-0.41V6.81z M95.53,6.81c0-0.16,0.06-0.3,0.17-0.41s0.25-0.17,0.41-0.17
	s0.3,0.06,0.41,0.17s0.17,0.25,0.17,0.41v7.03c0,0.16-0.06,0.3-0.17,0.41s-0.25,0.17-0.41,0.17s-0.3-0.06-0.41-0.17
	s-0.17-0.25-0.17-0.41v-2.93H92.6c-0.16,0-0.3-0.06-0.41-0.17s-0.17-0.25-0.17-0.41s0.06-0.3,0.17-0.41s0.25-0.17,0.41-0.17h2.93
	V6.81z M98.99,14.08c-0.03,0.06-0.07,0.12-0.12,0.17c-0.12,0.12-0.26,0.18-0.42,0.18s-0.3-0.06-0.41-0.17s-0.17-0.25-0.17-0.41
	c0-0.1,0.02-0.19,0.06-0.27l2.88-6.91h0.01c0.02-0.1,0.08-0.19,0.16-0.27c0.11-0.11,0.25-0.17,0.41-0.17s0.3,0.06,0.42,0.17
	c0.09,0.09,0.14,0.19,0.16,0.3l0.02-0.01l2.89,6.97h-0.01c0.02,0.06,0.03,0.12,0.03,0.19c0,0.16-0.06,0.3-0.17,0.41
	s-0.25,0.17-0.41,0.17s-0.3-0.06-0.41-0.18c-0.08-0.07-0.13-0.16-0.15-0.25l-2.36-5.69L98.99,14.08L98.99,14.08z M22.44,2.93
	c0,0.29,0,0.56,0,0.83c0,0.04-0.02,0.09-0.04,0.12c-0.77,1.3-1.34,2.69-1.89,4.09c-0.64,1.62-1.25,3.26-1.87,4.89
	c-0.03,0.08-0.04,0.19-0.02,0.27c0.71,3.04,1.53,6.04,2.62,8.97c0.05,0.15,0.13,0.22,0.28,0.26c0.25,0.07,0.49,0.15,0.73,0.23
	c0.05,0.02,0.11,0.07,0.11,0.11c0.01,0.3,0.01,0.6,0.01,0.91c-0.08,0-0.15,0.01-0.21,0.01c-1.41,0-2.83,0-4.24,0
	c-0.15,0-0.23-0.04-0.27-0.2c-0.56-1.86-1.01-3.74-1.35-5.65c-0.01-0.06-0.06-0.12-0.09-0.18c-0.05,0.05-0.11,0.09-0.15,0.15
	c-0.65,1.09-1.25,2.21-1.95,3.26c-0.73,1.11-1.69,2-2.94,2.55c-0.65,0.29-1.34,0.43-2.05,0.49c-1.28,0.09-2.51-0.07-3.65-0.69
	c-1.19-0.65-2.01-1.65-2.61-2.84c-0.55-1.1-0.86-2.27-1.06-3.48c-0.24-1.47-0.28-2.95-0.22-4.43c0.09-2.08,0.46-4.09,1.42-5.96
	c1.1-2.13,2.77-3.55,5.14-4.06c1.67-0.36,3.33-0.33,4.95,0.27c1.31,0.49,2.23,1.42,2.94,2.59c0.53,0.88,0.91,1.83,1.23,2.8
	c0,0.01,0,0.01,0.01,0.02c0.04,0.06,0.08,0.11,0.11,0.17c0.04-0.06,0.09-0.11,0.11-0.17c0.14-0.5,0.28-1,0.42-1.49
	c0.34-1.23,0.68-2.45,1.02-3.68c0.04-0.13,0.09-0.17,0.23-0.17c1.04,0.01,2.08,0,3.12,0C22.31,2.93,22.36,2.93,22.44,2.93z
	 M5.54,13.6c0.01,1.55,0.09,3.07,0.46,4.56c0.24,0.97,0.59,1.88,1.22,2.67c0.48,0.59,1.07,1,1.85,1.06
	c1.08,0.09,2.01-0.26,2.82-0.98c0.84-0.76,1.45-1.68,1.96-2.67c0.78-1.52,1.31-3.14,1.89-4.74c0.02-0.05,0.02-0.11,0.01-0.17
	c-0.17-1.31-0.35-2.62-0.67-3.91c-0.28-1.16-0.64-2.3-1.27-3.32c-0.68-1.1-1.61-1.83-2.95-1.94C9.45,4.04,8.26,4.47,7.37,5.6
	C6.62,6.56,6.26,7.69,5.99,8.85C5.64,10.42,5.55,12.01,5.54,13.6z M77.83,21.7c-0.26,0.01-0.46,0.01-0.58,0.01
	c-0.19,0-0.45,0-0.79-0.01c-0.07,0.08-0.16,0.17-0.26,0.27c-0.1,0.1-0.2,0.2-0.29,0.29c-0.09,0.09-0.17,0.17-0.23,0.23
	c-0.07,0.06-0.12,0.11-0.16,0.16c-0.25,0.24-0.4,0.39-0.48,0.47c-0.07,0.07-0.15,0.14-0.23,0.2c-0.08,0.06-0.16,0.09-0.22,0.09
	c-0.08,0-0.12-0.04-0.12-0.11c0-0.08,0.05-0.2,0.17-0.36c0.11-0.16,0.23-0.3,0.37-0.43s0.25-0.19,0.34-0.19
	c0.02,0,0.06,0.01,0.1,0.03l0.63-0.67c-0.08-0.01-0.18-0.02-0.31-0.02s-0.21-0.01-0.26-0.03c-0.04-0.02-0.07-0.05-0.07-0.11
	c0-0.09,0.1-0.24,0.3-0.45c0.11-0.11,0.21-0.18,0.31-0.21c0.1-0.03,0.28-0.05,0.55-0.05c-0.16,0.02-0.27,0.05-0.34,0.08
	c-0.07,0.03-0.1,0.07-0.11,0.13c0.06,0,0.12,0,0.18,0s0.12,0,0.21,0c0.09,0,0.15,0,0.19,0c0.36-0.35,0.69-0.66,0.98-0.92
	s0.61-0.51,0.93-0.74c0.33-0.23,0.68-0.45,1.04-0.65c0.07,0.09,0.11,0.19,0.11,0.3c0,0.09-0.03,0.19-0.08,0.3
	c-0.06,0.11-0.18,0.32-0.36,0.63c-0.18,0.31-0.37,0.64-0.55,0.99c0.06,0,0.11,0,0.15,0c0.04,0,0.08,0,0.13,0.01
	c0.13,0,0.2,0,0.23,0.01s0.04,0.03,0.04,0.07c0,0.02-0.02,0.05-0.05,0.09s-0.09,0.12-0.18,0.22s-0.17,0.21-0.25,0.32l-0.49,0.04
	c-0.26,0.48-0.39,0.76-0.39,0.82c0,0.09,0.05,0.14,0.14,0.14c0.05,0,0.24-0.1,0.57-0.29l-0.03,0.17c-0.18,0.14-0.32,0.24-0.42,0.32
	c-0.1,0.08-0.19,0.14-0.26,0.19c-0.07,0.05-0.14,0.09-0.2,0.12s-0.12,0.04-0.18,0.04c-0.07,0-0.14-0.03-0.21-0.1
	c-0.07-0.07-0.11-0.16-0.11-0.29c0-0.05,0.02-0.12,0.06-0.22c0.04-0.09,0.08-0.18,0.12-0.27S77.65,22.02,77.83,21.7z M77.2,20.95
	l1.07-0.02c0.13-0.21,0.23-0.39,0.31-0.52c0.08-0.13,0.16-0.28,0.26-0.43c0.09-0.16,0.17-0.29,0.24-0.39
	c0.07-0.11,0.14-0.23,0.22-0.37c-0.16,0.1-0.32,0.21-0.49,0.33s-0.35,0.27-0.56,0.44c-0.21,0.17-0.39,0.33-0.55,0.48
	C77.55,20.61,77.38,20.77,77.2,20.95z M68.02,20.16c0,0.02,0.01,0.02,0.04,0.02c0.02,0,0.11-0.01,0.27-0.04
	c0.16-0.03,0.3-0.04,0.43-0.04c-0.15,0.04-0.27,0.08-0.38,0.12c-0.1,0.04-0.21,0.09-0.32,0.14s-0.19,0.08-0.24,0.1
	s-0.09,0.02-0.12,0.02c-0.11,0-0.17-0.07-0.17-0.22c0-0.37,0.09-0.64,0.28-0.79c0.08-0.06,0.2-0.13,0.37-0.22
	c0.17-0.08,0.36-0.17,0.58-0.24c0.21-0.08,0.45-0.14,0.71-0.2c0.26-0.05,0.51-0.08,0.76-0.08c0.26,0,0.49,0.04,0.71,0.11
	s0.4,0.18,0.54,0.32c0.14,0.14,0.26,0.3,0.33,0.5s0.12,0.42,0.12,0.66c0,0.37-0.11,0.73-0.32,1.08c-0.21,0.35-0.5,0.66-0.86,0.93
	c-0.36,0.27-0.76,0.48-1.21,0.64c-0.45,0.16-0.89,0.23-1.33,0.23c-0.08,0-0.15-0.01-0.19-0.03c-0.05-0.02-0.08-0.05-0.1-0.1
	s-0.03-0.13-0.03-0.23c0-0.13,0.01-0.23,0.03-0.31c0.02-0.08,0.05-0.17,0.1-0.27c0.32-0.7,0.87-1.59,1.65-2.65
	c-0.16,0.02-0.33,0.05-0.52,0.1c-0.19,0.05-0.37,0.1-0.54,0.16c-0.17,0.06-0.31,0.12-0.43,0.17C68.08,20.09,68.02,20.13,68.02,20.16
	z M69.78,19.58c0,0,0,0.03,0.01,0.07c0.01,0.05,0.01,0.08,0.01,0.12c0,0.05-0.03,0.12-0.08,0.21s-0.15,0.25-0.3,0.49
	c-0.15,0.23-0.28,0.44-0.39,0.61c-0.11,0.18-0.24,0.4-0.38,0.68c-0.05,0.09-0.08,0.15-0.1,0.18s-0.05,0.08-0.08,0.15
	c-0.04,0.07-0.07,0.13-0.08,0.18c-0.02,0.05-0.03,0.09-0.03,0.12c0,0.06,0.03,0.1,0.09,0.12c0.06,0.02,0.15,0.03,0.27,0.03
	c0.3,0,0.62-0.05,0.95-0.16c0.33-0.11,0.65-0.26,0.94-0.45c0.29-0.19,0.53-0.41,0.7-0.66c0.18-0.24,0.26-0.5,0.26-0.77
	c0-0.3-0.11-0.54-0.33-0.7c-0.22-0.16-0.55-0.25-0.97-0.25C70.11,19.56,69.94,19.57,69.78,19.58z M72.32,22.15v-0.26h0.77v-0.78
	h0.26v0.78h0.78v0.26h-0.78v0.77H73.1v-0.77H72.32z M65.15,22.25l-0.88,0.5c-0.19,0.33-0.39,0.64-0.58,0.93
	c-0.19,0.29-0.37,0.53-0.52,0.72c-0.15,0.19-0.28,0.34-0.39,0.44s-0.19,0.15-0.24,0.15c-0.07,0-0.13-0.02-0.17-0.07
	s-0.07-0.1-0.07-0.17c0-0.24,0.13-0.54,0.4-0.89c0.27-0.36,0.69-0.74,1.27-1.14c0.25-0.48,0.46-0.92,0.62-1.31
	c0.16-0.39,0.29-0.73,0.37-1.01c0.09-0.28,0.15-0.5,0.18-0.67c0.03-0.17,0.05-0.28,0.05-0.32c0-0.09-0.04-0.14-0.11-0.14
	c-0.06,0-0.15,0.03-0.26,0.1c-0.12,0.07-0.24,0.17-0.38,0.31s-0.26,0.29-0.38,0.47c-0.12,0.18-0.22,0.37-0.32,0.59
	c-0.1,0.22-0.17,0.42-0.22,0.61c-0.05,0.18-0.08,0.33-0.08,0.45c0,0.03,0,0.09,0.01,0.19c0.02-0.03,0.04-0.07,0.07-0.11
	c0.03-0.04,0.06-0.09,0.11-0.14c0.04-0.05,0.09-0.08,0.14-0.12c0.03-0.02,0.06-0.04,0.1-0.05c0.04-0.01,0.06-0.01,0.06,0.01
	c0,0.01-0.06,0.1-0.19,0.25s-0.23,0.29-0.33,0.41c-0.05,0.07-0.12,0.14-0.21,0.2s-0.16,0.09-0.21,0.09c-0.07,0-0.11-0.03-0.13-0.09
	c-0.02-0.06-0.03-0.16-0.03-0.29c0-0.32,0.06-0.68,0.17-1.08c0.11-0.4,0.26-0.74,0.45-1.04c0.15-0.24,0.34-0.45,0.56-0.65
	c0.22-0.19,0.43-0.34,0.64-0.45s0.37-0.16,0.49-0.16c0.15,0,0.26,0.05,0.34,0.14s0.12,0.22,0.12,0.38c0,0.08-0.01,0.17-0.03,0.27
	s-0.04,0.2-0.07,0.3s-0.08,0.26-0.15,0.49c-0.07,0.22-0.12,0.37-0.14,0.45c-0.07,0.23-0.16,0.46-0.27,0.7
	c-0.11,0.24-0.27,0.56-0.47,0.95l0.67-0.36V22.25z M65.38,22.15v-0.26h0.77v-0.78h0.26v0.78h0.78v0.26h-0.78v0.77h-0.26v-0.77H65.38
	z M59.93,22v0.18c-0.25,0.21-0.5,0.41-0.75,0.61c-0.25,0.19-0.55,0.41-0.9,0.65c-0.18,0.25-0.34,0.45-0.47,0.61
	c-0.13,0.16-0.24,0.29-0.34,0.39c-0.09,0.1-0.14,0.16-0.14,0.16c-0.03,0.04-0.08,0.07-0.16,0.11c-0.07,0.04-0.13,0.06-0.18,0.06
	c-0.07,0-0.12-0.02-0.17-0.07c-0.04-0.05-0.07-0.11-0.07-0.18c0-0.18,0.09-0.36,0.28-0.56c0.19-0.2,0.46-0.4,0.81-0.61
	c0.18-0.25,0.34-0.51,0.5-0.76c0.16-0.26,0.3-0.49,0.42-0.7c0.12-0.21,0.23-0.42,0.33-0.62c-0.16,0.13-0.32,0.26-0.47,0.38
	s-0.31,0.24-0.46,0.35c-0.15,0.11-0.24,0.18-0.28,0.21s-0.07,0.05-0.09,0.07c-0.38,0.33-0.67,0.5-0.86,0.5
	c-0.18,0-0.33-0.09-0.46-0.26c-0.12-0.17-0.19-0.39-0.19-0.65c0-0.17,0.03-0.34,0.08-0.52c0.05-0.18,0.13-0.36,0.24-0.55
	c0.11-0.19,0.24-0.37,0.39-0.55c0.15-0.18,0.32-0.34,0.5-0.49c0.28-0.22,0.6-0.43,0.95-0.6c0.35-0.18,0.68-0.31,0.98-0.41
	c0.3-0.09,0.52-0.14,0.67-0.14c0.08,0,0.15,0.02,0.2,0.06c0.05,0.04,0.08,0.1,0.11,0.17c0.02,0.07,0.03,0.14,0.03,0.22
	c0,0.07-0.02,0.14-0.07,0.21c-0.06,0.09-0.18,0.19-0.34,0.3c-0.16,0.1-0.32,0.2-0.49,0.28c-0.16,0.08-0.26,0.12-0.28,0.12
	c-0.01,0-0.02,0-0.02-0.01c0-0.02,0.03-0.05,0.08-0.1c0.05-0.04,0.11-0.09,0.17-0.14c0.14-0.1,0.22-0.21,0.24-0.33
	c-0.21,0.06-0.43,0.14-0.64,0.23s-0.42,0.21-0.63,0.35s-0.41,0.29-0.62,0.46c-0.23,0.2-0.43,0.4-0.6,0.61
	c-0.16,0.21-0.29,0.41-0.37,0.59c-0.08,0.18-0.13,0.32-0.13,0.42c0,0.07,0.02,0.14,0.07,0.19c0.05,0.05,0.11,0.08,0.19,0.08
	c0.09,0,0.21-0.04,0.34-0.12c0.15-0.09,0.31-0.2,0.49-0.34c0.18-0.14,0.34-0.27,0.49-0.39c0.15-0.12,0.31-0.26,0.49-0.41
	c0.16-0.13,0.29-0.24,0.37-0.33c0.09-0.08,0.16-0.15,0.2-0.22c0.09-0.13,0.18-0.2,0.28-0.22c0.09-0.02,0.17,0,0.23,0.05
	c0.07,0.06,0.1,0.12,0.1,0.21c0,0.03-0.05,0.13-0.14,0.31c-0.1,0.18-0.24,0.44-0.44,0.78c-0.2,0.34-0.44,0.74-0.73,1.2
	C58.96,22.69,59.37,22.42,59.93,22z M60.15,22.15v-0.26h0.77v-0.78h0.26v0.78h0.78v0.26h-0.78v0.77h-0.26v-0.77H60.15z M53.7,22
	v0.23c-0.21,0.2-0.39,0.35-0.53,0.47s-0.29,0.23-0.44,0.32c-0.14,0.1-0.27,0.16-0.36,0.2c-0.1,0.04-0.18,0.06-0.25,0.06
	c-0.16,0-0.3-0.06-0.4-0.18s-0.16-0.28-0.16-0.47c0-0.22,0.04-0.44,0.13-0.65c0.09-0.22,0.22-0.44,0.38-0.67
	c0.17-0.23,0.37-0.49,0.62-0.77c0.19-0.21,0.28-0.33,0.28-0.36c0-0.02,0-0.03-0.02-0.04c-0.01-0.01-0.02-0.02-0.04-0.02
	c-0.04,0-0.17,0.09-0.39,0.28c-0.22,0.19-0.49,0.46-0.83,0.82c-0.34,0.36-0.7,0.79-1.09,1.28c-0.02,0.03-0.09,0.12-0.21,0.27
	c-0.12,0.15-0.2,0.25-0.25,0.3c-0.05,0.05-0.09,0.07-0.12,0.07c-0.06,0-0.12-0.06-0.16-0.19c-0.04-0.12-0.07-0.26-0.07-0.4
	c0-0.09,0.03-0.18,0.08-0.28c0.06-0.1,0.18-0.28,0.37-0.53s0.34-0.47,0.47-0.65s0.26-0.39,0.41-0.64c0.1-0.17,0.18-0.31,0.23-0.42
	c0.05-0.1,0.07-0.19,0.07-0.27c0-0.07-0.02-0.1-0.06-0.1c-0.08,0-0.24,0.11-0.47,0.33c-0.23,0.22-0.52,0.56-0.86,1
	c-0.34,0.44-0.7,0.95-1.07,1.53c-0.12,0.2-0.21,0.33-0.26,0.4c-0.05,0.07-0.11,0.1-0.17,0.1c-0.08,0-0.15-0.08-0.22-0.25
	c-0.07-0.16-0.1-0.3-0.1-0.4c0-0.03,0.01-0.07,0.04-0.11c0.29-0.39,0.53-0.72,0.72-0.99c0.19-0.27,0.35-0.53,0.5-0.77
	c0.15-0.24,0.25-0.44,0.32-0.6c0.07-0.16,0.1-0.28,0.1-0.37c0-0.09-0.04-0.14-0.13-0.14c-0.07,0-0.19,0.05-0.36,0.14
	c-0.17,0.09-0.38,0.21-0.64,0.37c-0.26,0.16-0.47,0.28-0.62,0.36s-0.27,0.12-0.35,0.12c-0.07,0-0.11-0.04-0.11-0.12
	c0-0.05,0.01-0.15,0.05-0.32c0.03-0.17,0.06-0.28,0.1-0.35c0.05-0.09,0.16-0.2,0.35-0.35c0.19-0.15,0.3-0.22,0.32-0.22
	c0.02,0,0.03,0.01,0.03,0.02c0,0.01-0.01,0.02-0.03,0.04c-0.09,0.07-0.16,0.13-0.2,0.18c-0.04,0.05-0.07,0.1-0.08,0.15
	c0.4-0.24,0.76-0.43,1.08-0.55c0.32-0.13,0.54-0.19,0.66-0.19c0.06,0,0.12,0.04,0.17,0.12c0.06,0.08,0.1,0.18,0.14,0.29
	c0.04,0.11,0.06,0.18,0.06,0.21c0,0.11-0.03,0.24-0.09,0.4c-0.06,0.15-0.13,0.33-0.23,0.53s-0.22,0.46-0.37,0.76
	c0.11-0.15,0.22-0.28,0.33-0.41c0.1-0.13,0.21-0.25,0.31-0.37s0.21-0.24,0.31-0.36c0.14-0.17,0.3-0.32,0.48-0.47
	c0.18-0.15,0.34-0.27,0.5-0.37s0.26-0.14,0.32-0.14c0.08,0,0.15,0.04,0.21,0.13c0.06,0.08,0.09,0.18,0.09,0.27
	c0,0.06-0.04,0.19-0.12,0.37c-0.08,0.18-0.21,0.41-0.37,0.69c-0.16,0.28-0.37,0.65-0.64,1.09c0.25-0.27,0.51-0.54,0.78-0.82
	s0.47-0.49,0.6-0.62c0.13-0.13,0.24-0.23,0.33-0.3c0.12-0.09,0.24-0.19,0.36-0.3c0.12-0.11,0.22-0.19,0.29-0.25s0.13-0.11,0.19-0.14
	c0.05-0.03,0.11-0.05,0.15-0.05c0.06,0,0.13,0.07,0.22,0.2c0.09,0.13,0.13,0.22,0.13,0.25c0,0.05-0.03,0.1-0.08,0.17
	s-0.16,0.18-0.32,0.36c-0.3,0.32-0.56,0.65-0.78,0.97c-0.22,0.33-0.39,0.62-0.5,0.89s-0.17,0.48-0.17,0.64
	c0,0.1,0.02,0.17,0.05,0.21s0.09,0.07,0.17,0.07c0.07,0,0.14-0.01,0.2-0.04s0.13-0.06,0.2-0.11c0.07-0.05,0.14-0.09,0.21-0.14
	c0.09-0.05,0.18-0.11,0.27-0.18c0.09-0.06,0.16-0.11,0.21-0.15C53.64,22.05,53.68,22.02,53.7,22z M53.91,22.15v-0.26h0.77v-0.78
	h0.26v0.78h0.78v0.26h-0.78v0.77h-0.26v-0.77H53.91z M80.83,19.53c0.1,0,0.17,0.01,0.21,0.02s0.06,0.02,0.06,0.05
	c0,0.01,0,0.02-0.01,0.02c-0.01,0-0.02,0.01-0.03,0.01c-0.02,0-0.03,0-0.05,0.01c-0.03,0.01-0.08,0.02-0.16,0.03
	c-0.07,0.02-0.11,0.02-0.12,0.02c-0.04,0-0.05-0.02-0.05-0.07c0-0.04,0.01-0.09,0.03-0.16c0.02-0.06,0.04-0.12,0.07-0.18
	c0.03-0.05,0.06-0.09,0.09-0.12c0.04-0.03,0.1-0.05,0.18-0.08c0.08-0.03,0.17-0.05,0.27-0.07c0.1-0.02,0.19-0.03,0.27-0.03
	c0.04,0,0.07,0.01,0.09,0.02c0.02,0.01,0.03,0.03,0.04,0.05c0.01,0.02,0.02,0.06,0.04,0.12c0.02,0.06,0.03,0.12,0.03,0.19
	c0,0.09-0.02,0.16-0.06,0.23c-0.04,0.06-0.1,0.12-0.17,0.18c-0.07,0.05-0.2,0.14-0.38,0.25s-0.32,0.2-0.42,0.27
	c-0.01,0.01-0.03,0.02-0.06,0.04s-0.05,0.04-0.08,0.06c-0.02,0.02-0.04,0.04-0.07,0.07c0.12-0.01,0.32-0.05,0.59-0.1
	c0.07-0.02,0.14-0.03,0.21-0.05s0.11-0.03,0.12-0.03c0.02,0,0.03,0.01,0.03,0.03c0,0.02,0,0.05-0.01,0.08
	c-0.01,0.03-0.02,0.06-0.04,0.09s-0.04,0.06-0.07,0.08c-0.12,0.11-0.36,0.17-0.7,0.17c-0.09,0-0.15-0.01-0.18-0.04
	c-0.02-0.02-0.04-0.05-0.06-0.11c-0.02-0.06-0.03-0.1-0.03-0.13c0-0.05,0.02-0.11,0.07-0.18c0.05-0.07,0.11-0.14,0.19-0.21
	s0.17-0.14,0.27-0.2c0.3-0.17,0.46-0.26,0.48-0.28c0.07-0.05,0.12-0.09,0.16-0.14c0.04-0.05,0.06-0.08,0.06-0.11
	c0-0.03-0.01-0.05-0.03-0.06c-0.02-0.01-0.05-0.02-0.09-0.02c-0.06,0-0.13,0.01-0.22,0.03c-0.08,0.02-0.17,0.05-0.26,0.09
	C80.96,19.43,80.89,19.47,80.83,19.53z"/>
</svg>
